<svg fill="#fff" viewBox="0 0 3000 979.66" version="1.1" xmlns="http://www.w3.org/2000/svg" id="Capa_1">

  <g>
    <path d="M1083.68,157.11h161.21c112.61,0,201.1,28.96,265.46,86.88,66.92,60.5,100.39,139.65,100.39,237.47,0,102.97-37.98,184.71-113.91,245.19-62.43,49.56-149.96,74.33-262.56,74.33h-149.62c13.51-23.8,20.27-57.92,20.27-102.32v-439.22c0-43.76-7.09-77.86-21.24-102.32ZM1214,224.68v508.72c75.3-1.93,133.85-16.08,175.69-42.47,70.14-44.4,105.22-114.87,105.22-211.4,0-52.13-11.58-98.46-34.75-139-25.1-43.11-60.5-74-106.18-92.67-32.82-14.15-79.49-21.87-139.97-23.17Z"></path>
    <path d="M1956.89,800.97h-332.07c13.51-25.1,20.27-59.52,20.27-103.29v-438.25c0-43.76-6.76-77.86-20.27-102.32h149.62c-13.51,24.46-20.27,58.57-20.27,102.32v468.17h71.43c68.85,0,129.35-14.8,181.48-44.4l-50.2,117.77Z"></path>
    <path d="M2144.3,227.57v210.44h62.74c47.61,0,84.62-9.65,111.01-28.96l-.02,128.39c-26.4-19.3-63.38-28.96-111-28.96h-62.74v190.17c0,44.41,6.75,78.53,20.26,102.33h-149.62c13.53-25.1,20.27-59.2,20.27-102.33v-439.22c0-43.75-6.75-77.86-20.27-102.33h382.27l-52.13,106.19c-31.54-23.8-73.37-35.72-125.49-35.72h-75.29Z"></path>
    <path d="M2862.99,178.35l-.92,101.61c-43.73-33.86-94.54-50.81-152.42-50.81-64.66,0-117.17,22.95-157.5,68.82-40.34,45.89-60.51,105.77-60.51,179.67s20.47,133.18,61.43,179.67c40.95,46.51,93.76,69.74,158.43,69.74,54.18,0,106.23-20.01,156.12-60.04l2.77,106.23c-57.27,18.47-113.62,27.71-169.05,27.71-95.46,0-172.74-28.64-231.86-85.91-59.12-57.27-88.68-132.4-88.68-225.4s32.33-176.28,97-238.79c64.66-62.5,147.48-93.76,248.49-93.76,50.49,0,96.07,7.09,136.72,21.25Z"></path>
  </g>
  <g>
    <path d="M788.58,684.57c69.87-30.32,134.85-64.01,193.33-99.47-303.49,128.8-588.26,140.37-639.4,24.79-51.13-115.57,150.5-315.06,451.85-448.69-65.97,18.55-135.03,43.01-204.9,73.32C262.64,376.33,42.26,592.04,97.25,716.32c54.98,124.28,364.5,110.06,691.33-31.74Z"></path>
    <g>
      <polygon points="982.03 585.38 982.03 585.38 848.95 390.59 794.36 161.2 794.36 161.2 927.44 356 982.03 585.38"></polygon>
      <polygon points="1104.81 457.04 1104.81 457.04 872.7 413.22 671.58 289.55 671.58 289.55 903.69 333.37 1104.81 457.04"></polygon>
      <polygon points="1100.7 279.64 1100.7 279.64 905.53 412.46 675.69 466.95 675.69 466.95 870.87 334.12 1100.7 279.64"></polygon>
      <polygon points="972.11 157.1 972.11 157.1 928.2 388.76 804.29 589.49 804.29 589.49 848.19 357.83 972.11 157.1"></polygon>
    </g>
  </g>
</svg>
